<?xml version="1.0" encoding="UTF-8" standalone="no"?>
<!DOCTYPE svg PUBLIC "-//W3C//DTD SVG 20010904//EN"
              "http://www.w3.org/TR/2001/REC-SVG-20010904/DTD/svg10.dtd">

<svg xmlns="http://www.w3.org/2000/svg"
     width="8.84722in" height="7in"
     viewBox="0 0 637 504">
  <path id="Selection"
        fill="black" stroke="black" stroke-width="1"
        d="M 90.43,186.00
           C 87.46,175.52 86.40,162.69 88.67,152.00
             89.73,147.01 93.10,137.47 95.49,133.00
             97.43,129.38 101.66,124.58 102.05,121.00
             102.05,121.00 102.05,112.00 102.05,112.00
             102.05,112.00 102.05,79.00 102.05,79.00
             102.05,79.00 101.09,67.00 101.09,67.00
             100.51,58.52 101.07,51.47 98.25,43.00
             93.86,29.83 79.69,29.00 68.00,27.83
             68.00,27.83 59.00,27.00 59.00,27.00
             59.00,27.00 43.00,26.04 43.00,26.04
             40.41,25.92 36.58,26.38 34.60,24.40
             32.96,22.77 33.04,20.14 33.00,18.00
             33.00,18.00 33.00,12.00 33.00,12.00
             33.12,5.59 34.50,4.21 41.00,4.02
             41.00,4.02 57.00,5.00 57.00,5.00
             57.00,5.00 78.00,5.00 78.00,5.00
             78.00,5.00 94.00,6.00 94.00,6.00
             94.00,6.00 114.00,6.00 114.00,6.00
             114.00,6.00 130.00,7.00 130.00,7.00
             130.00,7.00 144.00,7.00 144.00,7.00
             144.00,7.00 159.00,6.00 159.00,6.00
             159.00,6.00 179.00,6.00 179.00,6.00
             179.00,6.00 195.00,5.00 195.00,5.00
             195.00,5.00 216.00,5.00 216.00,5.00
             220.40,4.94 234.22,2.30 237.01,5.74
             238.46,7.54 238.04,15.46 238.00,18.00
             237.79,29.00 232.21,24.95 221.00,26.42
             207.91,28.15 182.78,25.75 175.41,39.00
             172.07,45.01 171.45,52.29 170.92,59.00
             170.92,59.00 170.00,93.00 170.00,93.00
             170.00,93.00 169.00,108.00 169.00,108.00
             169.00,108.00 169.00,179.00 169.00,179.00
             186.13,179.16 180.02,185.97 195.00,186.00
             195.00,186.00 216.00,187.00 216.00,187.00
             216.00,187.00 244.00,187.00 244.00,187.00
             245.93,187.00 249.08,187.12 250.83,186.40
             253.60,185.26 259.25,178.31 258.47,175.21
             257.94,173.10 254.72,171.62 253.00,170.54
             248.68,167.83 244.76,164.91 241.46,160.99
             232.55,150.38 227.02,136.89 227.16,123.00
             227.16,123.00 227.16,112.00 227.16,112.00
             228.92,102.92 236.50,94.14 246.00,93.20
             256.98,92.11 262.77,99.87 263.00,110.00
             259.37,108.16 254.10,104.47 250.00,104.72
             241.14,105.25 237.44,116.61 237.10,124.00
             236.57,135.76 243.32,152.00 252.01,159.82
             254.03,161.62 260.14,165.92 262.71,166.41
             266.29,167.09 268.92,162.45 270.71,160.00
             275.88,152.91 280.80,146.27 287.00,140.00
             303.76,123.07 328.28,108.08 353.00,109.04
             370.06,109.70 388.46,116.33 401.00,128.09
             405.06,131.90 408.43,136.10 411.10,141.00
             411.10,141.00 415.81,150.68 415.81,150.68
             417.77,153.21 424.96,157.64 428.00,159.88
             436.22,165.93 447.64,175.55 456.84,179.00
             456.84,179.00 456.84,163.00 456.84,163.00
             455.90,158.23 453.89,154.07 454.33,149.00
             454.97,141.60 456.98,142.05 456.96,131.00
             456.96,131.00 456.96,117.00 456.96,117.00
             456.96,117.00 456.00,105.00 456.00,105.00
             456.00,105.00 456.00,76.00 456.00,76.00
             456.00,76.00 455.09,66.00 455.09,66.00
             454.52,57.76 454.86,47.64 451.08,40.04
             444.85,27.50 420.25,27.14 408.00,27.00
             404.82,26.96 390.48,26.18 388.74,24.40
             386.46,22.08 386.95,15.19 387.00,12.00
             387.24,-0.54 398.21,4.98 412.00,5.00
             412.00,5.00 467.00,6.00 467.00,6.00
             467.00,6.00 482.00,7.00 482.00,7.00
             482.00,7.00 502.00,7.00 502.00,7.00
             502.00,7.00 517.00,6.00 517.00,6.00
             517.00,6.00 569.00,5.00 569.00,5.00
             574.05,4.99 589.14,2.05 591.98,6.31
             593.35,8.37 593.03,14.40 593.00,17.00
             592.83,29.31 586.83,24.86 575.00,26.42
             560.46,28.34 534.25,25.15 527.81,42.00
             525.32,48.53 524.01,65.70 523.96,73.00
             523.96,73.00 523.96,85.00 523.96,85.00
             523.96,85.00 523.00,97.00 523.00,97.00
             523.00,97.00 523.00,148.00 523.00,148.00
             523.15,159.04 528.00,157.17 528.00,171.00
             528.00,185.58 523.03,180.88 523.00,195.00
             523.00,195.00 523.00,232.00 523.00,232.00
             542.00,232.00 572.39,222.94 566.61,198.00
             563.44,184.31 546.82,178.24 537.42,190.04
             529.08,200.50 541.36,212.82 549.89,206.35
             554.65,202.74 555.21,196.66 550.77,192.53
             548.56,190.47 545.61,189.44 543.00,188.00
             564.74,181.89 566.20,216.63 544.00,216.66
             528.79,216.67 521.50,200.84 527.35,188.00
             531.10,179.77 538.26,175.94 547.00,175.17
             551.06,174.81 554.24,175.62 558.00,177.07
             573.00,182.87 577.35,199.87 571.88,214.00
             567.28,225.91 559.66,228.97 549.00,234.00
             549.00,234.00 573.00,234.00 573.00,234.00
             573.00,234.00 573.00,248.00 573.00,248.00
             573.00,248.00 54.00,248.00 54.00,248.00
             54.00,248.00 54.00,234.00 54.00,234.00
             54.00,234.00 61.00,234.00 61.00,234.00
             58.10,230.42 56.07,227.51 54.79,223.00
             47.74,198.21 74.14,186.88 94.00,197.00
             94.00,197.00 90.43,186.00 90.43,186.00 Z
           M 398.00,130.46
           C 392.90,126.28 388.86,124.09 383.00,121.26
             349.76,105.20 316.13,120.84 292.00,145.00
             286.05,150.96 276.01,162.25 273.00,170.00
             290.80,174.38 314.30,172.21 331.00,164.69
             352.55,154.98 362.35,142.70 388.00,143.00
             398.98,143.13 402.50,146.77 412.00,149.00
             408.29,141.29 404.70,135.96 398.00,130.46 Z
           M 95.04,166.00
           C 95.04,166.00 96.00,175.00 96.00,175.00
             102.10,171.55 102.97,167.54 103.00,161.00
             103.00,161.00 103.00,132.00 103.00,132.00
             96.55,138.77 94.64,156.80 95.04,166.00 Z
           M 416.00,171.02
           C 410.96,167.55 405.92,163.83 400.00,162.04
             379.44,155.84 349.27,162.87 347.00,188.00
             347.00,188.00 400.00,187.00 400.00,187.00
             400.00,187.00 431.00,186.00 431.00,186.00
             428.12,178.95 422.11,175.24 416.00,171.02 Z
           M 335.00,187.00
           C 342.13,188.80 341.49,185.73 342.90,180.00
             342.90,180.00 345.00,172.00 345.00,172.00
             337.35,176.15 337.26,179.28 335.00,187.00 Z
           M 292.00,180.99
           C 287.09,181.10 281.83,180.47 277.00,179.54
             274.74,179.11 270.06,177.48 268.09,177.92
             264.45,178.73 262.20,183.88 261.00,187.00
             261.00,187.00 274.00,188.00 274.00,188.00
             274.00,188.00 291.00,188.00 291.00,188.00
             291.00,188.00 305.00,187.27 305.00,187.27
             305.00,187.27 318.00,177.00 318.00,177.00
             318.00,177.00 292.00,180.99 292.00,180.99 Z
           M 100.69,208.67
           C 96.03,203.78 82.91,197.63 76.00,198.34
             65.24,199.44 57.99,207.06 58.75,218.00
             59.41,227.51 67.06,232.36 76.00,231.95
             83.58,231.61 89.56,225.91 87.27,218.04
             85.46,211.80 78.70,212.31 74.17,215.23
             72.09,216.56 69.75,219.19 68.00,221.00
             66.95,202.86 94.45,198.07 95.90,218.00
             96.44,225.39 93.59,227.76 91.00,234.00
             91.00,234.00 103.00,234.00 103.00,234.00
             103.00,228.17 104.49,212.65 100.69,208.67 Z
           M 334.55,224.00
           C 333.20,221.92 331.64,218.32 329.61,217.02
             327.80,215.87 325.08,216.01 323.00,216.00
             323.00,216.00 296.00,216.00 296.00,216.00
             286.33,216.06 282.92,220.65 275.00,225.58
             275.00,225.58 261.00,234.00 261.00,234.00
             261.00,234.00 342.00,234.00 342.00,234.00
             342.00,234.00 334.55,224.00 334.55,224.00 Z
           M 361.00,217.00
           C 361.00,217.00 338.00,216.00 338.00,216.00
             339.07,220.31 340.50,222.56 343.46,225.91
             345.90,228.67 350.44,232.44 354.00,233.49
             354.00,233.49 380.00,234.00 380.00,234.00
             382.29,233.98 384.84,234.10 386.91,232.98
             391.30,230.59 395.86,221.76 397.00,217.00
             397.00,217.00 361.00,217.00 361.00,217.00 Z
           M 189.00,218.00
           C 189.00,218.00 169.00,220.00 169.00,220.00
             169.00,220.00 169.00,233.00 169.00,233.00
             187.20,233.00 197.07,234.34 214.00,225.36
             218.99,222.71 221.44,221.53 225.00,217.00
             225.00,217.00 189.00,218.00 189.00,218.00 Z
           M 240.00,217.00
           C 231.51,217.16 229.69,221.53 223.00,225.90
             223.00,225.90 208.00,234.00 208.00,234.00
             221.50,234.00 234.69,229.54 247.00,224.14
             251.57,222.14 257.16,220.04 261.00,217.00
             261.00,217.00 240.00,217.00 240.00,217.00 Z
           M 415.00,217.04
           C 415.00,217.04 399.00,217.04 399.00,217.04
             399.00,217.04 401.00,225.00 401.00,225.00
             404.69,224.17 404.86,224.14 407.00,221.00
             407.00,221.00 409.00,230.00 409.00,230.00
             417.49,228.61 419.95,225.20 424.00,218.00
             424.00,218.00 415.00,217.04 415.00,217.04 Z
           M 457.00,225.00
           C 457.00,225.00 455.40,219.02 455.40,219.02
             455.40,219.02 448.00,218.00 448.00,218.00
             448.00,218.00 428.21,219.02 428.21,219.02
             428.21,219.02 416.00,234.00 416.00,234.00
             416.00,234.00 457.00,234.00 457.00,234.00
             457.00,234.00 457.00,225.00 457.00,225.00 Z
           M 128.00,298.38
           C 125.22,298.59 122.29,298.59 122.47,294.89
             122.64,291.39 126.72,286.08 128.55,283.00
             131.38,278.24 134.18,272.18 136.19,267.00
             137.05,264.78 138.81,259.02 140.08,257.48
             142.31,254.79 145.04,255.30 148.00,256.00
             143.60,268.60 135.39,280.92 128.00,292.00
             132.10,291.81 146.92,290.48 149.27,287.69
             151.53,284.98 153.31,272.06 153.97,268.02
             154.37,265.56 155.36,262.32 158.70,263.66
             161.13,264.62 161.00,267.86 160.83,270.00
             160.83,270.00 157.00,289.00 157.00,289.00
             165.64,289.08 170.08,289.26 171.00,299.00
             168.10,298.06 160.96,295.70 158.14,296.69
             152.80,298.56 152.90,313.47 154.00,318.00
             154.00,318.00 146.00,319.00 146.00,319.00
             144.84,311.62 146.67,303.06 149.00,296.00
             149.00,296.00 128.00,298.38 128.00,298.38 Z
           M 393.20,284.00
           C 392.53,287.40 391.35,292.68 392.60,295.98
             397.06,307.76 410.39,296.29 408.48,287.02
             407.14,280.49 400.40,282.30 401.00,274.00
             401.00,274.00 415.00,281.26 415.00,281.26
             415.00,281.26 424.00,282.00 424.00,282.00
             424.00,282.00 423.00,285.00 423.00,285.00
             423.00,285.00 429.00,282.00 429.00,282.00
             427.51,285.76 424.22,293.07 427.60,296.63
             428.58,297.66 429.63,298.03 431.02,297.66
             435.60,296.47 443.36,284.22 446.00,280.00
             434.41,275.86 438.86,276.24 428.00,281.00
             430.90,271.45 438.00,274.71 445.00,274.80
             445.00,274.80 453.00,274.00 453.00,274.00
             451.10,279.80 449.78,283.76 450.02,290.00
             450.11,292.25 450.34,295.74 453.15,296.28
             455.98,296.82 461.57,291.68 464.00,290.00
             466.22,292.36 468.00,288.66 471.00,286.00
             469.88,290.69 469.89,299.05 477.04,294.31
             482.21,290.89 486.80,284.74 489.00,279.00
             489.00,279.00 481.00,276.79 481.00,276.79
             481.00,276.79 471.00,280.00 471.00,280.00
             476.33,273.35 482.44,272.50 490.00,276.00
             492.08,272.75 492.19,272.65 496.00,272.00
             496.00,272.00 492.00,294.00 492.00,294.00
             492.00,294.00 511.00,280.00 511.00,280.00
             511.00,280.00 512.00,281.00 512.00,281.00
             506.13,290.59 497.32,293.43 493.58,298.30
             489.54,303.57 493.24,311.78 483.98,318.35
             479.24,321.72 465.78,323.73 465.57,314.99
             465.38,307.33 478.98,303.49 483.85,299.37
             487.31,296.44 487.44,292.21 488.00,288.00
             483.31,293.40 468.52,310.04 465.00,294.00
             459.65,297.58 446.66,308.89 445.05,295.00
             445.05,295.00 445.05,288.00 445.05,288.00
             440.35,292.55 435.81,302.07 429.00,303.53
             418.34,305.81 421.25,290.39 423.00,285.00
             423.00,285.00 413.00,284.00 413.00,284.00
             412.98,290.49 412.84,294.90 407.81,299.83
             403.01,304.46 393.17,306.17 388.85,299.83
             386.89,297.01 387.03,293.31 387.00,290.00
             383.60,293.40 377.00,300.57 373.00,302.55
             368.63,304.70 365.17,303.90 363.72,298.98
             363.36,297.76 363.18,296.27 363.18,295.00
             363.18,292.99 363.65,290.97 364.00,289.00
             359.78,292.90 350.60,308.35 343.43,302.40
             341.99,301.20 340.12,296.92 339.00,295.00
             337.99,296.86 337.34,298.24 335.78,299.77
             332.23,303.26 326.28,304.61 324.15,298.94
             321.71,292.48 324.72,287.92 321.00,278.00
             313.69,282.01 304.94,295.67 304.00,304.00
             296.36,302.66 299.97,297.82 300.00,287.00
             296.02,291.58 290.64,298.52 285.00,300.91
             279.43,303.28 275.98,300.73 275.09,295.00
             275.09,295.00 275.09,288.00 275.09,288.00
             271.22,292.60 264.53,303.48 258.00,303.63
             253.64,303.73 251.83,299.71 251.32,296.00
             250.38,289.17 254.47,280.58 260.02,276.65
             266.51,272.06 272.42,274.91 276.00,274.96
             276.00,274.96 283.00,274.00 283.00,274.00
             281.27,279.32 279.62,285.35 280.06,291.00
             280.25,293.42 281.04,297.16 284.30,296.61
             288.36,295.92 296.25,286.09 300.00,283.00
             300.00,283.00 301.00,286.00 301.00,286.00
             301.00,286.00 300.00,277.00 300.00,277.00
             300.00,277.00 305.00,276.00 305.00,276.00
             305.00,276.00 304.00,293.00 304.00,293.00
             308.87,288.12 314.31,272.67 322.89,274.37
             328.92,275.56 327.59,288.41 328.11,293.00
             328.83,299.39 331.88,298.68 335.82,294.98
             335.82,294.98 340.00,291.00 340.00,291.00
             340.00,291.00 340.00,294.00 340.00,294.00
             340.00,294.00 346.00,287.00 346.00,287.00
             346.00,287.00 345.39,292.00 345.39,292.00
             345.34,296.89 348.44,299.87 352.91,296.55
             356.56,293.84 362.64,284.20 365.00,280.00
             365.00,280.00 355.00,277.35 355.00,277.35
             355.00,277.35 346.00,280.00 346.00,280.00
             351.83,272.72 357.85,272.94 366.00,276.00
             366.00,276.00 369.00,261.00 369.00,261.00
             363.97,261.43 362.77,261.42 360.00,257.00
             360.00,257.00 375.00,257.00 375.00,257.00
             375.00,257.00 368.80,288.00 368.80,288.00
             368.31,290.63 367.10,297.47 371.23,297.97
             375.14,298.45 383.45,288.60 387.00,286.00
             387.00,286.00 388.00,289.00 388.00,289.00
             388.00,289.00 392.00,281.00 392.00,281.00
             392.00,281.00 389.00,280.00 389.00,280.00
             389.00,280.00 393.00,262.00 393.00,262.00
             388.34,261.72 386.57,261.73 385.00,257.00
             391.07,258.07 392.13,258.14 398.00,256.00
             398.61,260.56 394.33,278.29 393.20,284.00 Z
           M 230.28,279.40
           C 235.02,274.74 231.69,261.00 244.00,259.00
             244.00,259.00 236.00,281.00 236.00,281.00
             236.00,281.00 242.00,279.00 242.00,279.00
             239.77,282.83 239.40,283.27 235.00,284.00
             234.94,290.85 232.32,301.74 243.00,299.97
             240.04,305.24 233.18,305.47 230.72,299.97
             228.50,294.93 229.76,289.21 230.00,284.00
             230.00,284.00 215.00,284.00 215.00,284.00
             215.00,284.00 212.00,306.00 212.00,306.00
             212.00,306.00 206.00,307.00 206.00,307.00
             206.00,307.00 210.00,284.00 210.00,284.00
             210.00,284.00 201.00,286.00 201.00,286.00
             204.43,281.76 205.64,281.32 211.00,281.00
             211.00,281.00 214.00,267.00 214.00,267.00
             209.46,266.88 207.50,267.16 205.00,263.00
             205.00,263.00 219.00,263.00 219.00,263.00
             219.00,263.00 216.00,281.00 216.00,281.00
             219.43,281.00 227.86,281.78 230.28,279.40 Z
           M 268.00,277.12
           C 257.30,276.52 254.83,291.61 256.74,295.85
             259.30,301.57 264.70,296.87 267.19,293.96
             267.19,293.96 270.96,289.00 270.96,289.00
             273.19,285.83 274.61,283.63 276.00,280.00
             273.24,278.50 271.24,277.30 268.00,277.12 Z
           M 469.00,282.00
           C 469.00,282.00 468.00,283.00 468.00,283.00
             468.00,283.00 468.00,282.00 468.00,282.00
             468.00,282.00 469.00,282.00 469.00,282.00 Z
           M 388.00,284.00
           C 388.00,284.00 387.00,285.00 387.00,285.00
             387.00,285.00 387.00,284.00 387.00,284.00
             387.00,284.00 388.00,284.00 388.00,284.00 Z
           M 472.00,284.00
           C 472.00,284.00 471.00,285.00 471.00,285.00
             471.00,285.00 471.00,284.00 471.00,284.00
             471.00,284.00 472.00,284.00 472.00,284.00 Z
           M 347.00,285.00
           C 347.00,285.00 346.00,286.00 346.00,286.00
             346.00,286.00 346.00,285.00 346.00,285.00
             346.00,285.00 347.00,285.00 347.00,285.00 Z
           M 471.70,316.52
           C 474.14,320.09 479.79,318.82 482.44,316.52
             485.84,313.19 486.64,306.43 487.00,302.00
             482.66,303.24 467.18,310.37 471.70,316.52 Z
           M 573.00,324.00
           C 573.00,324.00 573.00,337.00 573.00,337.00
             573.00,337.00 553.00,337.00 553.00,337.00
             558.22,342.21 565.63,343.34 570.86,354.00
             580.13,372.87 569.75,395.95 547.00,394.96
             539.32,394.63 531.61,391.06 528.00,384.00
             521.77,371.81 527.04,354.83 542.00,354.04
             549.09,353.67 556.08,355.89 558.99,363.00
             563.33,373.58 554.97,386.75 543.00,382.00
             549.77,379.57 558.44,372.87 551.57,365.34
             544.20,357.28 531.12,366.64 535.53,377.00
             541.63,391.29 559.00,388.61 565.31,376.00
             566.69,373.26 566.91,370.99 567.07,368.00
             568.20,346.03 540.68,338.05 523.00,338.00
             523.00,338.00 523.00,375.00 523.00,375.00
             523.02,390.27 528.89,386.26 527.96,403.00
             527.49,411.37 524.07,410.30 524.00,421.00
             523.94,431.18 524.22,455.61 529.09,464.00
             537.46,478.41 562.88,475.61 577.00,477.28
             580.18,477.66 589.55,477.74 591.40,479.60
             593.53,481.73 593.05,488.05 593.00,491.00
             592.94,494.14 592.92,497.17 589.85,498.99
             586.47,500.98 578.25,499.05 574.00,498.99
             574.00,498.99 551.00,498.99 551.00,498.99
             551.00,498.99 536.00,498.00 536.00,498.00
             536.00,498.00 478.00,497.00 478.00,497.00
             478.00,497.00 463.00,498.00 463.00,498.00
             463.00,498.00 409.00,499.00 409.00,499.00
             404.06,499.01 391.11,501.81 388.31,497.71
             386.61,495.20 386.95,489.08 387.00,486.00
             387.04,483.86 386.96,481.23 388.60,479.60
             390.27,477.93 392.83,478.10 395.00,477.92
             395.00,477.92 410.00,477.00 410.00,477.00
             419.10,476.89 440.27,474.89 446.90,468.78
             454.49,461.78 454.25,449.49 455.17,440.00
             455.51,436.48 456.13,434.84 455.91,431.00
             455.66,426.64 454.19,422.40 454.52,418.00
             454.52,418.00 455.96,408.00 455.96,408.00
             455.96,408.00 455.96,391.00 455.96,391.00
             455.96,391.00 417.22,418.32 417.22,418.32
             414.33,421.22 413.55,424.49 411.68,428.00
             409.02,432.98 405.56,437.58 401.57,441.57
             382.04,461.10 351.41,465.50 326.00,456.46
             307.33,449.82 292.06,436.99 279.44,422.00
             279.44,422.00 268.96,408.02 268.96,408.02
             267.35,405.90 265.94,403.98 262.99,404.28
             259.85,404.60 253.39,409.01 251.09,411.18
             242.87,418.95 236.17,435.63 237.17,447.00
             237.79,453.94 241.12,463.97 249.00,465.48
             253.14,466.27 259.01,462.46 263.00,461.00
             262.05,480.33 242.46,480.54 233.33,470.82
             226.41,463.45 226.89,454.30 227.00,445.00
             227.25,424.11 241.63,404.85 260.00,396.00
             257.37,390.61 253.90,385.87 250.42,381.00
             238.28,364.01 223.44,347.25 203.00,340.52
             195.73,338.12 185.66,336.90 178.00,337.00
             175.30,337.04 171.75,336.92 170.02,339.43
             168.57,341.54 169.00,348.26 169.00,351.00
             185.69,347.09 196.64,362.86 190.52,378.00
             186.59,387.70 178.84,391.17 169.04,392.00
             169.04,392.00 169.04,407.00 169.04,407.00
             169.04,407.00 170.00,419.00 170.00,419.00
             170.00,419.00 170.83,445.00 170.83,445.00
             171.62,452.83 171.98,461.98 178.11,467.79
             188.66,477.80 208.58,475.89 222.00,477.17
             234.29,478.34 237.83,476.33 238.00,485.00
             238.00,485.00 238.00,492.00 238.00,492.00
             237.77,504.01 228.94,499.12 219.00,499.00
             219.00,499.00 198.00,499.00 198.00,499.00
             198.00,499.00 172.00,497.00 172.00,497.00
             172.00,497.00 117.00,497.00 117.00,497.00
             117.00,497.00 96.00,497.00 96.00,497.00
             96.00,497.00 77.00,498.94 77.00,498.94
             71.20,498.76 72.33,497.02 62.00,497.00
             62.00,497.00 33.00,497.00 33.00,497.00
             33.00,497.00 33.00,487.00 33.00,487.00
             33.02,484.65 32.81,481.39 34.60,479.60
             36.27,477.93 38.83,478.10 41.00,477.92
             41.00,477.92 56.00,477.00 56.00,477.00
             63.66,476.91 83.69,474.63 90.00,470.92
             92.87,469.23 94.99,466.91 96.59,464.00
             98.42,460.64 101.01,450.70 100.41,447.00
             99.94,444.16 96.75,439.91 95.27,437.00
             93.14,432.80 90.32,424.62 89.24,420.00
             85.10,402.40 88.27,390.51 94.00,374.00
             81.69,378.10 68.93,379.56 59.19,368.96
             54.93,364.33 53.38,359.22 53.76,353.00
             54.20,345.81 56.42,342.88 60.00,337.00
             60.00,337.00 54.00,337.00 54.00,337.00
             54.00,337.00 54.00,324.00 54.00,324.00
             54.00,324.00 573.00,324.00 573.00,324.00 Z
           M 86.57,353.85
           C 90.27,347.08 84.88,339.72 78.00,338.34
             66.30,336.00 58.45,344.64 59.04,356.00
             59.28,360.54 60.76,363.65 64.10,366.96
             72.63,374.78 83.80,372.31 93.00,366.96
             95.81,365.54 100.43,362.75 101.98,359.91
             103.20,357.67 103.00,354.50 103.00,352.00
             103.01,348.93 103.81,339.93 101.40,338.02
             99.66,336.64 94.28,337.00 92.00,337.00
             94.03,344.13 98.52,350.15 94.55,358.00
             87.31,372.27 64.93,363.86 69.00,349.00
             73.88,357.87 83.61,359.28 86.57,353.85 Z
           M 294.00,373.73
           C 278.34,362.20 262.11,352.22 244.00,345.00
             233.10,340.65 223.86,337.01 212.00,337.00
             214.28,340.53 218.44,341.76 222.00,343.97
             227.57,347.42 231.31,350.44 236.00,355.01
             244.05,362.87 249.37,369.02 256.11,378.00
             258.12,380.68 264.24,389.90 266.32,391.36
             269.60,393.66 276.19,391.03 280.00,390.53
             284.92,389.67 299.10,389.75 304.00,390.53
             308.40,391.39 314.92,394.10 319.00,393.00
             319.00,393.00 294.00,373.73 294.00,373.73 Z
           M 264.00,337.00
           C 264.00,337.00 285.00,351.14 285.00,351.14
             285.00,351.14 314.00,373.61 314.00,373.61
             314.00,373.61 328.00,385.00 328.00,385.00
             327.71,371.77 324.91,366.66 330.87,353.00
             334.30,345.15 338.07,343.25 341.00,337.00
             341.00,337.00 264.00,337.00 264.00,337.00 Z
           M 386.96,338.02
           C 384.16,336.55 377.35,337.00 374.00,337.00
             361.16,337.00 351.87,334.24 342.67,345.09
             333.96,355.35 332.33,369.08 334.80,382.00
             336.29,389.75 337.21,394.63 345.00,398.00
             341.93,384.42 337.47,369.11 352.00,359.72
             364.15,351.88 381.67,364.51 376.00,380.00
             373.04,377.99 369.95,376.18 368.16,372.96
             366.41,369.82 366.71,365.01 360.98,362.90
             351.76,359.52 343.57,370.83 347.48,386.00
             351.70,402.42 365.95,409.81 382.00,410.00
             399.75,410.20 403.45,408.24 418.00,397.97
             421.03,395.82 427.95,390.95 429.57,387.83
             431.16,384.77 431.07,379.43 430.99,376.00
             430.75,366.27 424.42,348.09 415.99,342.74
             413.51,341.17 411.78,341.16 409.00,341.00
             409.00,341.00 408.00,349.00 408.00,349.00
             408.00,349.00 401.00,345.00 401.00,345.00
             401.00,345.00 399.00,353.00 399.00,353.00
             395.67,349.06 390.65,339.96 386.96,338.02 Z
           M 455.98,365.00
           C 457.10,362.77 456.98,360.42 457.00,358.00
             457.02,354.35 457.93,340.02 455.40,338.02
             453.92,336.85 450.82,337.01 449.00,337.00
             449.00,337.00 418.00,337.00 418.00,337.00
             418.00,337.00 428.11,353.00 428.11,353.00
             432.06,360.43 435.61,373.58 436.00,382.00
             440.93,379.89 453.64,369.66 455.98,365.00 Z
           M 182.95,371.00
           C 183.05,368.66 182.87,366.18 181.69,364.10
             179.87,360.91 172.96,356.92 170.02,360.60
             168.41,362.62 169.19,371.95 169.09,375.09
             168.95,379.14 168.87,381.04 170.00,385.00
             177.55,383.20 182.62,379.28 182.95,371.00 Z
           M 442.00,386.00
           C 448.10,383.67 455.85,379.94 457.00,373.00
             451.55,375.56 445.52,381.13 442.00,386.00 Z
           M 97.07,425.00
           C 98.10,428.97 98.62,432.47 102.08,435.00
             102.08,435.00 102.08,412.00 102.08,412.00
             102.08,412.00 102.08,403.00 102.08,403.00
             102.08,403.00 97.07,395.00 97.07,395.00
             93.55,402.49 95.21,417.07 97.07,425.00 Z
           M 384.00,427.82
           C 359.82,426.09 347.00,411.34 326.00,403.69
             314.12,399.37 312.74,399.95 301.00,398.83
             297.02,398.45 295.34,397.81 291.00,398.09
             291.00,398.09 273.00,400.00 273.00,400.00
             275.39,407.21 283.63,416.21 288.72,422.00
             309.75,445.90 339.94,461.57 372.00,453.12
             386.75,449.23 407.93,437.17 411.00,421.00
             402.84,424.51 393.12,428.47 384.00,427.82 Z" />
</svg>
